<?xml version="1.0" standalone="no"?>
<!DOCTYPE svg PUBLIC "-//W3C//DTD SVG 20010904//EN"
 "http://www.w3.org/TR/2001/REC-SVG-20010904/DTD/svg10.dtd">
<svg version="1.0" xmlns="http://www.w3.org/2000/svg"
 width="169.000000pt" height="169.000000pt" viewBox="0 0 169.000000 169.000000"
 preserveAspectRatio="xMidYMid meet">
<metadata>
Created by potrace 1.14, written by Peter Selinger 2001-2017
</metadata>
<g transform="translate(0.000000,169.000000) scale(0.100000,-0.100000)"
fill="#000000" stroke="none">
<path d="M0 845 l0 -845 845 0 845 0 0 845 0 845 -776 0 c-695 0 -777 -2 -791
-16 -15 -14 -17 -14 -25 0 -6 11 -23 16 -53 16 l-45 0 0 -845z m200 641 c0
-17 -27 -29 -35 -16 -4 6 -3 15 0 20 9 15 35 12 35 -4z m450 -27 c0 -6 -6 -17
-14 -24 -12 -12 -15 -12 -20 1 -3 9 -4 20 0 25 7 13 34 11 34 -2z m990 -274
c0 -8 -7 -15 -15 -15 -8 0 -15 7 -15 15 0 8 7 15 15 15 8 0 15 -7 15 -15z
m-546 -69 c47 -20 60 -61 39 -124 -9 -26 -16 -85 -17 -133 -1 -74 -5 -93 -31
-144 -57 -112 -184 -172 -301 -142 -48 12 -63 12 -102 1 -64 -20 -89 -17 -117
11 -30 29 -32 67 -7 117 15 29 18 52 14 115 -4 66 -1 87 18 131 25 58 92 125
148 149 50 21 170 24 200 5 20 -13 27 -12 70 6 57 26 46 25 86 8z m-610 -324
c6 -10 -5 -26 -21 -29 -7 -2 -13 3 -13 10 0 24 23 36 34 19z m1061 -103 c0 -7
-8 -15 -17 -17 -18 -3 -25 18 -11 32 10 10 28 1 28 -15z m-742 -166 c-5 -14
-24 -13 -35 1 -3 5 -1 14 5 21 14 14 37 -3 30 -22z m627 -38 c0 -7 -7 -15 -15
-19 -15 -5 -22 24 -9 37 9 9 24 -2 24 -18z m-1120 1 c0 -8 -5 -18 -11 -22 -14
-8 -33 11 -25 25 10 16 36 13 36 -3z m1132 -56 c4 -3 3 -11 -1 -19 -6 -10 -12
-9 -25 5 -14 13 -15 19 -5 25 8 4 16 5 19 1 3 -4 8 -9 12 -12z m-522 -195 c0
-17 -28 -27 -33 -12 -7 20 4 36 19 30 8 -3 14 -11 14 -18z m613 10 c1 -5 -6
-11 -15 -13 -11 -2 -18 3 -18 13 0 17 30 18 33 0z"/>
<path d="M1040 1060 c-12 -7 -11 -13 9 -34 13 -14 28 -23 32 -20 15 9 10 52
-7 58 -19 7 -16 8 -34 -4z"/>
<path d="M760 1044 c-46 -20 -98 -71 -116 -113 -19 -44 -18 -132 2 -179 18
-45 62 -92 84 -92 45 0 310 234 310 274 0 23 -60 84 -103 105 -51 25 -126 27
-177 5z"/>
<path d="M980 775 c-41 -42 -97 -90 -123 -107 -33 -21 -45 -34 -38 -41 15 -15
109 8 152 37 44 30 91 115 87 156 l-3 31 -75 -76z"/>
<path d="M604 666 c-9 -24 3 -46 25 -46 31 0 33 15 6 40 -22 20 -25 21 -31 6z"/>
</g>
</svg>
